<svg version="1.1" viewBox="40 40 220 220" xmlns="http://www.w3.org/2000/svg">
 <!-- Copyright (c) 2013-2017 the openage authors.
      http://openage.sft.mx/
      This file is licensed under GNU GPLv3 or later. -->
 <title>openage logo</title>
 <path d="M 101.7795,248.87 A 110,110 0 0 1 42.818903,125.26 110,110 0 0 1 150,40 110,110 0 0 1 257.18109,125.26 110,110 0 0 1 198.22049,248.87 L 150,150 Z" stroke-width="1.0"/>
 <g transform="matrix(1 0 0 1 0 0)" fill="#fff">
  <path transform="rotate(64)" d="m310.57-69.063a110 110 0 0 1 -42.277 86.681l-67.723-86.681z"/>
  <rect x="136.5" y="87" width="27" height="62.5"/>
  <rect x="185.5" y="87" width="27" height="77.5"/>
  <rect x="87.5" y="87" width="27" height="77.5"/>
  <circle cx="150" cy="164.5" r="62.5"/>
 </g>
 <path d="m113.3 172.25v-33.371s13.262-9.241 36.701-9.241 36.701 9.241 36.701 9.241v33.371c0 20.87-36.701 37.528-36.701 37.528s-36.701-16.658-36.701-37.528z"/>
</svg>
